<svg xmlns="http://www.w3.org/2000/svg" xmlns:xlink="http://www.w3.org/1999/xlink" id="Layer_1" width="32" height="32" x="0" y="0" enable-background="new 0 0 32 32" version="1.1" viewBox="0 0 32 32" xml:space="preserve"><path fill="#444" d="M30.7,0H1.3C0.6,0,0,0.6,0,1.3v29.3C0,31.4,0.6,32,1.3,32h29.3c0.7,0,1.3-0.6,1.3-1.3V1.3	C32,0.6,31.4,0,30.7,0z M9.3,21.3C6.4,21.3,4,18.9,4,16c0-2.9,2.4-5.3,5.3-5.3s5.3,2.4,5.3,5.3C14.7,18.9,12.3,21.3,9.3,21.3z M22.7,21.3c-2.9,0-5.3-2.4-5.3-5.3c0-2.9,2.4-5.3,5.3-5.3S28,13.1,28,16C28,18.9,25.6,21.3,22.7,21.3z"/></svg>